<svg width="18" height="21" viewBox="0 0 18 21" fill="none" xmlns="http://www.w3.org/2000/svg">
<path d="M9 18.7884C4.85786 18.7884 1.5 14.9648 1.5 10.2482C1.5 5.53159 4.85786 1.70801 9 1.70801C13.1421 1.70801 16.5 5.53159 16.5 10.2482C16.4955 14.9627 13.1403 18.7833 9 18.7884ZM8.25 3.469C5.17051 3.91077 2.89523 6.95401 3.00362 10.4862C3.11201 14.0183 5.56828 16.8733 8.66734 17.0692C11.7664 17.2652 14.4851 14.7374 14.9363 11.2406V11.2269V11.2022V11.1765V11.1518V11.1381V11.1287V11.1168V11.1022H8.25V3.469ZM9.75 3.469V9.3942H14.9535C14.6111 6.29761 12.4694 3.85887 9.75 3.469Z" fill="white"/>
</svg>
