<svg width="18" height="19" viewBox="0 0 18 19" fill="none" xmlns="http://www.w3.org/2000/svg">
<g clip-path="url(#clip0)">
<path d="M6.5068 4.17441C6.55619 4.44687 6.8179 4.66175 7.1266 4.60213C7.42635 4.5375 7.59682 4.24067 7.54075 3.96163C7.4749 3.63717 7.16461 3.45643 6.87063 3.54698C6.60805 3.62792 6.45273 3.90797 6.5068 4.17441Z" fill="white"/>
<path d="M17.8678 11.7816C14.9983 3.15481 15.1957 3.74587 15.1834 3.71649C14.8847 3.00252 14.3049 2.44748 13.5926 2.19363C13.4906 2.15729 7.71476 0.76188 7.54783 0.702186C7.03591 0.519073 6.32468 0.621722 5.82537 1.09601L0.875625 5.79998C0.319157 6.32858 0 7.08108 0 7.86459V16.1945C0 17.1762 0.769134 17.9748 1.71455 17.9748H12.3041C13.2495 17.9748 14.0186 17.1762 14.0186 16.1945V15.3894L16.9702 14.0848C17.8284 13.7012 18.2276 12.6719 17.8678 11.7816ZM12.3041 16.8855H1.71455C1.3507 16.8855 1.05472 16.5755 1.05472 16.1945V7.86459C1.05472 7.38496 1.2497 6.92462 1.5897 6.60164C5.83037 2.57162 3.20918 5.08532 6.55633 1.8973C6.73088 1.73115 6.97189 1.66441 7.21092 1.73885C7.42457 1.80475 7.04758 1.48762 12.429 6.60171C12.7689 6.92466 12.9639 7.38496 12.9639 7.86459V16.1945C12.9639 16.5755 12.6679 16.8855 12.3041 16.8855ZM16.5533 13.0842L14.0186 14.2045V7.86459C14.0186 7.08108 13.6994 6.32858 13.143 5.80005L9.45687 2.29694L13.2715 3.23178C13.6879 3.38745 14.0273 3.71329 14.2076 4.13072C17.0717 12.7411 16.8785 12.1632 16.891 12.193C17.035 12.5368 16.8827 12.937 16.5533 13.0842Z" fill="white"/>
<path d="M8.50652 7.34616C8.23802 7.22974 7.92889 7.36032 7.81617 7.63766L5.24889 13.9571C5.10242 14.3176 5.36114 14.7127 5.73494 14.7127C5.94099 14.7127 6.13675 14.5871 6.22148 14.3786L8.78876 8.05915C8.90144 7.78174 8.77509 7.46253 8.50652 7.34616Z" fill="white"/>
<path d="M6.03512 8.91556C6.03512 7.86437 5.28968 7.00916 4.37338 7.00916C3.45707 7.00916 2.71167 7.86437 2.71167 8.91556C2.71167 9.96674 3.45711 10.822 4.37341 10.822C5.28971 10.822 6.03512 9.96674 6.03512 8.91556ZM4.37341 9.73265C4.04437 9.73265 3.76639 9.35847 3.76639 8.91556C3.76639 8.47264 4.04434 8.09847 4.37341 8.09847C4.70248 8.09847 4.98044 8.47264 4.98044 8.91556C4.9804 9.35847 4.70245 9.73265 4.37341 9.73265Z" fill="white"/>
<path d="M9.69471 11.3299C8.7784 11.3299 8.03296 12.1851 8.03296 13.2363C8.03296 14.2875 8.7784 15.1427 9.69471 15.1427C10.611 15.1427 11.3565 14.2875 11.3565 13.2363C11.3565 12.1851 10.611 11.3299 9.69471 11.3299ZM9.69471 14.0534C9.36567 14.0534 9.08768 13.6792 9.08768 13.2363C9.08768 12.7934 9.36563 12.4192 9.69471 12.4192C10.0238 12.4192 10.3017 12.7934 10.3017 13.2363C10.3017 13.6792 10.0237 14.0534 9.69471 14.0534Z" fill="white"/>
</g>
<defs>
<clipPath id="clip0">
<rect width="18" height="18.5904" fill="white" transform="translate(0 0.000671387)"/>
</clipPath>
</defs>
</svg>
