<svg width="20" height="21" viewBox="0 0 20 21" fill="none" xmlns="http://www.w3.org/2000/svg">
<path d="M12.232 9.29516H13.5C13.6326 9.29516 13.7598 9.34957 13.8536 9.44641C13.9473 9.54325 14 9.6746 14 9.81156C14 9.94852 13.9473 10.0799 13.8536 10.1767C13.7598 10.2736 13.6326 10.328 13.5 10.328H6.5C6.36739 10.328 6.24021 10.2736 6.14645 10.1767C6.05268 10.0799 6 9.94852 6 9.81156C6 9.6746 6.05268 9.54325 6.14645 9.44641C6.24021 9.34957 6.36739 9.29516 6.5 9.29516H7.257C7.11548 9.13302 7.02735 8.92873 7.00525 8.71163C6.98315 8.49453 7.02822 8.27578 7.134 8.08678L9.634 3.61476C9.76661 3.37755 9.98503 3.20447 10.2412 3.13358C10.4974 3.06269 10.7703 3.0998 11 3.23676L13.598 4.78595C13.8277 4.92292 13.9953 5.1485 14.0639 5.41307C14.1325 5.67765 14.0966 5.95955 13.964 6.19676L12.232 9.29516ZM13.098 5.68036L10.5 4.13116L8 8.60318L9.16 9.29516H11.078L13.098 5.68036Z" fill="white"/>
<path d="M13.96 8.26241L14.537 7.22961C14.686 7.23539 14.8318 7.27549 14.9638 7.34696C15.0958 7.41844 15.2107 7.5195 15.3 7.64273L17.8 11.0851C17.9298 11.2638 18 11.4813 18 11.7047V16.5248C18 16.7987 17.8946 17.0614 17.7071 17.2551C17.5196 17.4488 17.2652 17.5576 17 17.5576H3C2.73478 17.5576 2.48043 17.4488 2.29289 17.2551C2.10536 17.0614 2 16.7987 2 16.5248V11.7047C2 11.4813 2.07018 11.2638 2.2 11.0851L4.7 7.64273C4.79315 7.51446 4.91393 7.41035 5.05279 7.33865C5.19164 7.26694 5.34475 7.22961 5.5 7.22961H6.463L5.984 8.08684C5.95278 8.14273 5.92666 8.20151 5.906 8.26241H5.5L3.25 11.3608H16.75L14.5 8.26241H13.96ZM3 16.5248H17V12.3936H3V16.5248Z" fill="white"/>
</svg>
